<?xml version="1.0" encoding="UTF-8"?>
<svg id="Layer_1" data-name="Layer 1" xmlns="http://www.w3.org/2000/svg" viewBox="0 0 781.57447 496.96881">
  <defs>
    <style>
      .cls-1 {
        fill: #08bfcf;
      }
    </style>
  </defs>
  <path class="cls-1" d="m550.35046,14.32159c-1.18628,6.16098-4.26677,11.42274-8.18914,16.12966-14.59899,17.46904-29.31277,34.84231-43.96922,52.25401-10.88694,12.9534-21.77399,25.88777-32.66105,38.8413-17.46904,20.79827-34.93807,41.57739-52.44541,62.35651-10.25561,12.18825-20.51122,24.37637-30.78598,36.54535-18.65531,22.17584-37.32978,44.3518-55.98509,66.5086-32.46987,38.53509-64.92048,77.08945-97.3712,115.64381-17.79428,21.14266-35.30162,42.49577-53.38294,63.38981-13.10651,15.13467-29.44661,25.60072-49.26916,30.02071-2.88908.65048-5.95054.97572-8.91623.95668-34.01969-.07661-68.02012-.24875-102.03981-.421-1.33938,0-2.69779-.0383-4.03717-.1531-8.57184-.70794-13.29791-6.98371-10.48521-15.11552,1.77942-5.16611,4.36241-10.40871,7.84475-14.57984,31.26444-37.52119,62.81582-74.79351,94.27155-112.14244,27.8586-33.1012,55.69804-66.2024,83.53748-99.28444,27.83944-33.10132,55.679-66.20251,83.51845-99.28456,9.68162-11.49934,19.3824-22.96039,29.06403-34.45973,8.45704-10.02602,16.93324-20.05203,25.37124-30.07805,17.20114-20.41569,34.26832-40.94607,51.60341-61.24685,1.98986-2.33437,4.05633-4.51563,6.21844-6.58198,12.03503-11.57584,26.61498-19.13365,43.33777-22.82644,4.19027-.93765,8.66748-.72709,13.01086-.74624,14.71378-.07649,29.44672-.0383,44.16051-.0383v.2679c17.10549,0,34.23002-.0383,51.33551.05734,2.87005.01915,5.83586.3062,8.57196,1.09063,6.19929,1.76038,8.89708,6.60113,7.69165,12.89618Z"/>
  <path class="cls-1" d="m762.12174,495.54329c-2.7361.78455-5.70179,1.07148-8.57184,1.09063-17.10549.09564-34.21098.05746-51.33563.05746v.2679c-14.71378,0-29.44661.03819-44.16039-.0383-4.34338-.01915-8.8207.17214-13.01098-.74624-19.70764-4.36241-36.43044-14.06319-49.55609-29.40842-17.33509-20.30078-34.40227-40.83127-51.60353-61.24685-2.54469-3.02315-5.0895-6.04618-7.63431-9.06933,7.57697-8.70579,15.11563-17.56468,22.69249-26.34708,17.1438-19.86074,34.28759-39.72149,51.45042-59.58211,3.38669-3.90334,6.75424-7.82572,10.14081-11.74809,3.99899,4.76426,8.01701,9.50937,12.01599,14.27363,28.39439,33.73264,56.73133,67.48444,85.10646,101.21708,14.65644,17.41158,29.38938,34.76582,43.96922,52.25401,3.92238,4.70692,7.00287,9.96868,8.18914,16.12966,1.20543,6.29505-1.49236,11.1358-7.69177,12.89606Z"/>
  <path class="cls-1" d="m781.2937,14.32159c-1.16712,6.16098-4.24762,11.42274-8.18914,16.12966-14.57984,17.46904-29.29362,34.84231-43.95006,52.25401-15.30692,18.21516-156.16888,187.8159-161.12455,193.556-14.71367,17.04815-29.42745,34.11534-44.14124,51.16337-8.43801,9.75823-16.8759,19.51635-25.29475,29.27447q-.01915-.01904-.0383-.03819c-.95668,1.12882-1.89421,2.2386-2.81259,3.32924-.17225.22959-23.68747,27.76295-24.60585,29.25532-4.78341,5.68276-8.57196,10.21742-11.23145,13.35537-17.79439,21.14266-35.32077,42.49577-53.38294,63.38981-13.10651,15.13467-29.44672,25.60072-49.26916,30.02071-2.90835.65048-5.95054.97572-8.93538.95668-34.00054-.07661-68.00108-.24875-102.02066-.421-1.33938,0-2.69791-.0383-4.03717-.1531-8.57196-.70794-13.29791-6.98371-10.50447-15.11552,1.79857-5.16611,4.38168-10.40871,7.86402-14.57984,16.55054-19.87989,99.05485-117.90157,175.68523-208.93953,30.11635-35.7608,59.33336-70.45013,83.26958-98.88271,30.21212-35.85645,52.04356-61.78264,56.80782-67.42698,17.20114-20.41569,34.26844-40.94607,51.60353-61.24685,13.12566-15.34523,29.84845-25.04601,49.55609-29.40842,4.19027-.93765,8.6676-.72709,13.01098-.74624,14.71367-.07649,29.44661-.0383,44.16039-.0383v.2679c17.10549,0,34.21098-.0383,51.33563.05734,2.8509.01915,5.83574.3062,8.57184,1.09063,6.18025,1.76038,8.87804,6.60113,7.67261,12.89618Z"/>
</svg>